<svg width="400" height="400" viewBox="0 0 400 400" xmlns="http://www.w3.org/2000/svg">
  <!-- Background -->
  <rect width="400" height="400" fill="#222" />
  
  <!-- Cat body -->
  <ellipse cx="200" cy="220" rx="120" ry="100" fill="#f9a8d4" />
  
  <!-- Cat head -->
  <circle cx="200" cy="150" r="80" fill="#f9a8d4" />
  
  <!-- Ears -->
  <polygon points="140,100 120,40 170,90" fill="#f9a8d4" />
  <polygon points="260,100 280,40 230,90" fill="#f9a8d4" />
  
  <!-- Inner ears -->
  <polygon points="140,100 130,60 165,90" fill="#ec4899" />
  <polygon points="260,100 270,60 235,90" fill="#ec4899" />
  
  <!-- Eyes -->
  <ellipse cx="160" cy="140" rx="15" ry="25" fill="white" />
  <ellipse cx="240" cy="140" rx="15" ry="25" fill="white" />
  
  <!-- Pupils -->
  <ellipse cx="160" cy="145" rx="8" ry="15" fill="black" />
  <ellipse cx="240" cy="145" rx="8" ry="15" fill="black" />
  
  <!-- Nose -->
  <polygon points="200,170 190,185 210,185" fill="#ec4899" />
  
  <!-- Mouth -->
  <path d="M180,190 Q200,210 220,190" stroke="black" stroke-width="3" fill="none" />
  
  <!-- Whiskers -->
  <line x1="180" y1="180" x2="120" y2="170" stroke="black" stroke-width="2" />
  <line x1="180" y1="185" x2="120" y2="185" stroke="black" stroke-width="2" />
  <line x1="180" y1="190" x2="120" y2="200" stroke="black" stroke-width="2" />
  
  <line x1="220" y1="180" x2="280" y2="170" stroke="black" stroke-width="2" />
  <line x1="220" y1="185" x2="280" y2="185" stroke="black" stroke-width="2" />
  <line x1="220" y1="190" x2="280" y2="200" stroke="black" stroke-width="2" />
  
  <!-- Paws -->
  <circle cx="140" cy="320" r="20" fill="#f9a8d4" />
  <circle cx="260" cy="320" r="20" fill="#f9a8d4" />
  
  <!-- Text -->
  <text x="200" y="380" font-family="Arial" font-size="24" fill="white" text-anchor="middle">Meow! Art goes here</text>
</svg> 